<?xml version="1.0" encoding="UTF-8" standalone="no"?>
<!DOCTYPE svg PUBLIC "-//W3C//DTD SVG 1.1//EN" "http://www.w3.org/Graphics/SVG/1.1/DTD/svg11.dtd">
<svg xmlns="http://www.w3.org/2000/svg" xmlns:dc="http://purl.org/dc/elements/1.1/" xmlns:xl="http://www.w3.org/1999/xlink" version="1.1" viewBox="69 21 146 146" width="146" height="146">
  <defs/>
  <g id="Canvas_1" fill="none" stroke-opacity="1" fill-opacity="1" stroke="none" stroke-dasharray="none">
    <title>Canvas 1</title>
    <rect fill="white" x="69" y="21" width="146" height="146"/>
    <g id="Canvas_1_Layer_1">
      <title>Layer 1</title>
      <g id="Graphic_25">
        <path d="M 116.4115 156.3445 C 112.9105 154.8835 110.1785 152.1665 108.7415 148.6695 C 105.3405 140.4785 95.9145 131.0525 87.7235 127.6365 C 84.2325 126.1895 81.5105 123.4725 80.0575 119.9515 C 78.6055 116.4295 78.6005 112.5785 80.0525 109.0825 C 83.4425 100.8965 83.4425 87.5645 80.0575 79.3665 C 77.0575 72.1275 80.5085 63.8035 87.7385 60.8085 C 95.9405 57.4335 105.3715 48.0025 108.7715 39.8155 C 111.7565 32.5805 120.0795 29.1295 127.3095 32.1305 C 135.5065 35.5255 148.8445 35.5255 157.0355 32.1405 C 160.5225 30.6875 164.3825 30.7035 167.9035 32.1505 C 171.4055 33.6125 174.1325 36.3295 175.5845 39.8265 C 178.9795 48.0285 188.4105 57.4595 196.6025 60.8435 C 203.8325 63.8435 207.2625 72.1625 204.2675 79.4025 C 200.8775 87.5885 200.8725 100.9165 204.2675 109.1185 C 207.2625 116.3435 203.8125 124.6765 196.5775 127.6765 C 188.3805 131.0615 178.9545 140.4935 175.5545 148.6955 C 174.1125 152.1755 171.3795 154.9085 167.8585 156.3555 C 164.3515 157.8065 160.4965 157.8065 157.0055 156.3705 C 148.8145 152.9705 135.4815 152.9705 127.2795 156.3555 C 123.7885 157.7925 119.9435 157.7925 116.4115 156.3445 M 106.2925 38.7945 C 103.1805 46.2875 94.2205 55.2525 86.7165 58.3585 C 78.1305 61.9065 74.0365 71.7985 77.5835 80.3895 C 80.6905 87.8935 80.6855 100.5675 77.5735 108.0605 C 75.8635 112.2155 75.8635 116.7935 77.5935 120.9635 C 79.3185 125.1425 82.5515 128.3955 86.6965 130.1105 C 94.1995 133.2175 103.1705 142.1885 106.2715 149.6815 C 109.8235 158.2835 119.7105 162.3865 128.3015 158.8295 C 135.8005 155.7125 148.4795 155.7125 155.9785 158.8295 C 164.5695 162.3865 174.4665 158.3035 178.0185 149.7015 C 181.1355 142.2085 190.0955 133.2425 197.5995 130.1355 C 206.1905 126.5895 210.2895 116.6975 206.7365 108.0955 L 206.7365 108.1065 C 203.6305 100.5875 203.6305 87.9175 206.7365 80.4245 C 210.3035 71.8225 206.2105 61.9415 197.6145 58.3845 C 190.1155 55.2785 181.1605 46.3075 178.0635 38.8035 C 176.3385 34.6595 173.0895 31.4215 168.9205 29.6915 C 164.7465 27.9615 160.1675 27.9505 156.0185 29.6665 C 148.5205 32.7725 135.8305 32.7725 128.3325 29.6665 C 119.7405 26.0995 109.8595 30.2015 106.2925 38.7945" fill="#003f98"/>
      </g>
      <g id="Graphic_26">
        <path d="M 105.5384 153.9222 C 101.8044 144.9252 91.4574 134.5732 82.4614 130.8442 C 74.5584 127.5662 70.7834 118.4532 74.0674 110.5452 C 77.7964 101.5392 77.7964 86.9062 74.0824 77.9152 C 70.7934 69.9962 74.5734 60.8832 82.4914 57.6162 C 91.4874 53.8872 101.8344 43.5442 105.5634 34.5532 C 108.8474 26.6292 117.9494 22.8652 125.8634 26.1452 C 134.8594 29.8742 149.5024 29.8742 158.4974 26.1592 C 166.4114 22.8802 175.5144 26.6552 178.7874 34.5642 C 182.5114 43.5702 192.8534 53.9272 201.8544 57.6512 C 205.6644 59.2352 208.6494 62.2202 210.2434 66.0702 C 211.8364 69.9202 211.8464 74.1252 210.2584 77.9402 C 206.5244 86.9312 206.5244 101.5792 210.2434 110.5702 C 213.5264 118.4892 209.7524 127.6012 201.8284 130.8802 C 192.8334 134.5932 182.4804 144.9502 178.7674 153.9422 C 175.4784 161.8492 166.3704 165.6152 158.4574 162.3412 C 149.4564 158.6222 134.8244 158.6122 125.8224 162.3412 C 117.9094 165.6152 108.8024 161.8402 105.5384 153.9222 M 102.7914 33.4042 C 99.3864 41.6172 89.5544 51.4372 81.3384 54.8372 C 71.8964 58.7492 67.3834 69.6072 71.3094 79.0592 C 74.6994 87.2862 74.6994 101.1642 71.2994 109.3862 C 67.3834 118.8422 71.8664 129.7112 81.3184 133.6212 C 89.5444 137.0232 99.3704 146.8532 102.7554 155.0752 C 106.6614 164.5212 117.5344 169.0302 126.9714 165.1032 C 135.1934 161.7182 149.0924 161.7182 157.3034 165.1182 C 166.7454 169.0302 177.6234 164.5312 181.5294 155.0892 C 184.9404 146.8782 194.7554 137.0582 202.9884 133.6472 C 212.4344 129.7462 216.9324 118.8782 213.0264 109.4212 C 209.6154 101.2102 209.6154 87.3102 213.0414 79.0992 C 214.9134 74.5402 214.9134 69.5052 213.0164 64.9172 C 211.1084 60.3332 207.5564 56.7762 203.0024 54.8732 C 194.7864 51.4782 184.9704 41.6422 181.5604 33.4202 C 177.6644 23.9782 166.7864 19.4802 157.3444 23.3822 C 149.1374 26.7922 135.2234 26.7772 127.0064 23.3822 C 117.5704 19.4702 106.7024 23.9542 102.7914 33.4042" fill="#003f98"/>
      </g>
      <g id="Graphic_27">
        <path d="M 90.7487 68.5196 C 90.5567 68.8116 89.2057 67.7156 89.2057 67.7156 C 88.7047 67.2546 88.8867 66.6466 88.8867 66.6466 C 89.8837 65.4386 90.6477 65.5746 90.6477 65.5746 C 90.8397 65.6556 91.0327 65.6966 91.2247 65.7676 C 91.5687 66.0596 91.7507 66.4236 91.8317 66.7686 C 91.7147 67.6696 90.7487 68.5196 90.7487 68.5196 Z" fill="#003f98"/>
      </g>
      <g id="Graphic_28">
        <path d="M 99.2645 62.3212 C 99.7255 61.6482 100.6255 62.4782 100.6255 62.4782 L 103.5095 65.2812 L 104.5215 66.3532 C 105.0525 66.9252 105.6655 67.2542 106.1405 67.6542 C 106.7075 68.1202 107.3495 68.7162 107.8855 69.2782 C 108.2555 69.6532 108.7615 69.9712 108.9835 70.4822 C 108.5385 70.8112 108.0025 70.7752 107.5875 70.9482 C 107.6085 70.9582 107.5975 70.9582 107.6785 70.9482 C 107.6385 71.0892 107.4255 71.0542 107.3855 71.1752 C 107.5015 71.1752 107.6085 71.1552 107.7145 71.1302 C 107.7395 71.1662 107.7145 71.2012 107.7745 71.2512 C 108.0175 71.2612 108.2555 71.1552 108.5135 71.2612 C 108.4275 71.3122 108.3865 71.3472 108.3965 71.4332 C 108.6295 71.5442 108.8525 71.3982 109.0955 71.4692 C 108.9125 71.5442 108.6295 71.4442 108.5385 71.6152 C 108.8165 71.7722 109.1405 71.4582 109.3885 71.7632 C 109.7075 71.7632 109.9455 71.8732 110.2395 71.8332 C 110.6685 72.3502 111.0985 71.7122 111.0985 71.7122 C 111.3315 71.0182 110.9115 70.4462 110.9115 70.4462 C 110.2795 69.7032 108.1335 68.0842 108.1335 68.0842 C 107.1925 66.7532 105.6245 65.8882 105.6245 65.8882 C 105.0575 65.4032 104.7945 64.9872 104.7945 64.9872 C 102.4015 62.4532 101.4455 61.8102 101.4455 61.8102 C 100.5035 60.2972 99.8355 60.5652 99.8355 60.5652 C 99.2695 60.7972 99.2035 61.1622 99.0065 61.4552 C 98.6015 60.8082 98.9355 58.3692 98.9355 58.3692 C 99.9375 55.4092 98.3635 55.9812 98.3635 55.9812 C 97.1495 56.2552 97.3165 58.8002 97.3165 58.8002 C 96.6025 63.5852 96.6025 65.4732 96.6025 65.4732 C 96.5885 68.0342 97.3065 71.2012 97.3065 71.2012 C 97.7965 73.3972 98.3785 74.1752 98.3785 74.1752 C 98.6515 74.5402 99.3705 75.7242 99.9075 76.6502 C 99.6035 76.5742 99.3555 76.4022 99.0975 76.1342 C 96.2025 73.0172 95.9555 72.3082 95.9555 72.3082 C 96.4205 70.2652 94.7765 69.8602 94.7765 69.8602 C 94.5995 69.8502 94.3665 69.9462 94.3665 69.9462 C 93.9565 70.1022 93.0965 70.5942 92.9955 70.7002 C 92.7935 70.8872 92.8995 71.1552 92.8695 71.4332 C 93.0365 72.1162 94.4425 72.7742 94.4425 72.7742 C 94.4575 72.7742 94.4725 72.7742 94.4825 72.7842 C 94.6695 72.8702 97.7665 76.5132 97.7665 76.5132 C 101.0705 80.5112 101.6575 77.9752 101.6575 77.9752 C 101.6275 77.1002 101.6215 76.2452 101.2075 75.5362 C 100.4135 74.7122 99.4665 73.7712 99.3505 73.6052 C 98.1005 72.3242 96.6335 66.3642 98.1915 61.9172 C 98.8045 63.9502 99.5725 65.9992 100.3525 68.0232 C 100.4535 69.1922 101.3545 69.8762 101.3545 69.8762 C 101.7685 70.0572 102.0825 69.6072 102.0825 69.6072 C 102.3255 68.7522 101.8605 68.3122 101.8605 68.3122 C 101.1415 67.5222 101.2985 67.2032 101.2985 67.2032 C 102.3255 67.8862 103.0645 67.3512 103.0645 67.3512 C 104.0405 66.5452 102.8115 65.5952 102.8115 65.5952 C 102.5175 65.4892 102.2955 65.2812 102.0525 65.1442 C 101.6075 64.9012 101.3335 64.6082 101.3335 64.6082 C 100.9035 64.3202 101.0095 64.5372 100.8585 64.4862 C 100.6455 64.4002 100.5245 64.1372 100.3375 64.0862 C 100.2205 64.1482 100.3825 64.2692 100.2815 64.2792 C 100.1195 64.1982 100.0745 63.9762 99.9375 63.8902 C 100.2005 64.3402 100.5495 64.7692 100.6915 65.2202 C 100.4535 65.3322 100.3975 65.5332 100.3115 65.6962 C 100.0585 65.0832 99.9675 64.5372 99.6745 63.8542 C 99.5075 63.2572 99.1375 62.6952 99.1275 62.1752 C 99.1275 62.0632 99.2645 62.3212 99.2645 62.3212 Z" fill="#003f98"/>
      </g>
      <g id="Graphic_29">
        <path d="M 161.5239 54.9493 C 161.5189 54.8523 161.4829 54.7923 161.4529 54.6913 C 161.2099 54.3973 161.3319 54.1543 161.0279 54.0233 C 161.0279 53.9023 161.1239 53.7653 161.0479 53.6683 C 161.0679 53.5983 161.1639 53.6333 161.1799 53.5573 C 161.2149 53.4613 161.1799 53.4013 161.1699 53.3303 C 161.3319 53.0963 161.4529 52.8043 161.7519 52.8043 C 161.8879 52.9253 162.1009 52.9253 162.2619 52.9153 C 162.3939 53.0213 162.5909 53.0963 162.7079 53.1933 C 162.8039 53.2043 164.7159 56.1073 164.7159 56.1073 C 164.9039 56.4113 165.1619 56.7853 165.1159 57.2763 C 164.9749 58.9303 163.4459 58.5313 163.4459 58.5313 C 163.2949 58.4553 163.2039 58.2633 163.0059 58.2743 C 162.2829 57.8833 161.5239 54.9493 161.5239 54.9493 Z" fill="#003f98"/>
      </g>
      <g id="Graphic_30">
        <path d="M 154.7995 55.3386 C 153.9645 55.7786 152.3045 55.7786 152.3045 55.7786 C 151.5965 55.6786 151.3585 55.5216 151.2025 55.3386 C 151.2625 55.2786 151.3335 55.2426 151.3995 55.1816 C 151.3995 54.8526 151.6475 54.5346 151.6065 54.1546 C 151.6925 54.0586 151.8445 54.0586 151.9555 54.0086 C 152.0775 54.1096 152.3355 54.1296 152.3805 54.2916 C 153.4385 54.8126 155.7305 52.8996 155.7305 52.8996 C 157.6635 51.2296 158.3055 49.3676 158.3055 49.3676 L 157.7485 49.3936 C 154.5055 49.6616 154.2275 48.3556 154.2275 48.3556 C 154.2175 48.3206 154.2785 48.2246 154.2475 48.0526 C 154.2275 47.9316 154.0805 47.8096 154.1065 47.6486 C 154.1165 47.5666 154.2275 47.4806 154.2625 47.3946 C 154.4505 47.1016 154.9055 46.8436 154.9055 46.8436 C 155.0115 46.8226 155.1075 46.7476 155.2145 46.7226 C 155.2395 46.7116 156.1195 46.5906 156.5045 46.9546 C 156.5045 47.0146 156.5145 47.0306 156.4845 47.1016 C 158.7815 47.8806 159.3585 46.8226 159.3585 46.8226 C 160.3905 44.4456 160.2485 43.9596 160.8055 41.6666 C 160.9515 41.1316 161.0175 41.0606 161.1345 40.5596 C 161.2605 40.0736 161.4425 39.5376 161.4425 39.5376 C 161.6245 39.1926 161.9595 38.9606 162.3735 39.0006 C 162.4245 39.0006 162.6375 39.0116 162.6575 38.9606 C 162.9405 39.1076 163.1125 39.4156 163.4315 39.3756 C 163.4815 39.4966 163.3755 39.5376 163.4165 39.6186 C 163.4265 39.6436 163.5065 39.6336 163.5225 39.6696 C 163.5475 39.6936 163.4965 39.7446 163.5065 39.7796 C 163.5375 39.8416 163.6185 39.8416 163.6485 39.8766 C 163.6685 39.9266 163.6385 40.0136 163.6635 40.0846 C 163.6795 40.1446 163.7595 40.1336 163.7705 40.2656 C 163.8005 40.3526 163.7805 40.4626 163.7805 40.5336 C 163.8315 41.2426 163.6485 41.4496 163.6485 41.4496 L 162.7685 42.8506 C 162.5915 43.1396 162.5055 43.3726 162.4245 43.7276 C 162.0095 45.3866 161.3715 46.6016 161.3715 46.6016 C 162.0395 46.6156 163.1125 46.2726 163.1125 46.2726 C 164.0735 46.0186 164.7165 47.0056 164.7165 47.0056 C 165.6525 48.2956 164.4735 48.7706 164.4735 48.7706 C 164.3165 48.8416 164.2355 48.9276 164.0235 48.8836 C 163.9325 48.8926 163.9015 48.9896 163.8105 48.9896 C 163.6795 48.9896 163.6385 48.8066 163.5175 48.7966 C 163.4265 48.7966 163.3655 48.8836 163.2845 48.8926 C 162.2375 48.7966 162.1305 48.5126 162.1305 48.5126 L 161.9595 48.5126 C 161.4535 48.3816 160.6125 48.6346 160.3855 48.8326 C 160.0665 49.7326 159.3025 51.3516 159.3025 51.3516 C 157.9015 54.0686 154.7995 55.3386 154.7995 55.3386 Z" fill="#003f98"/>
      </g>
      <g id="Graphic_31">
        <path d="M 179.5212 75.4303 C 178.6052 75.6733 177.0262 75.6023 176.5712 74.5503 C 176.3892 73.9183 176.5962 73.7253 177.0772 73.4683 C 178.3422 72.7393 179.7392 73.8833 179.7392 73.8833 C 179.9612 74.2723 180.2852 74.6873 180.2552 74.9803 C 180.2242 75.2223 179.5212 75.4303 179.5212 75.4303 M 191.8822 68.1903 C 191.9322 68.2923 191.7802 68.3273 191.7502 68.3983 C 191.6592 68.5803 191.8002 68.8473 191.7602 69.0703 C 191.5472 69.2023 191.2642 69.1563 191.0312 69.1563 C 190.3132 69.1673 189.4682 69.2023 188.8412 68.9593 C 188.9572 68.8473 189.3312 68.7673 189.4882 68.6303 C 191.6182 67.6803 191.8822 68.1903 191.8822 68.1903 M 192.0742 61.9413 C 191.9522 61.9323 191.8262 61.9163 191.7192 61.8103 C 191.5072 61.8813 191.2842 62.0383 191.1122 62.0273 C 190.6372 62.6093 190.2022 63.0393 190.2022 63.0393 C 189.8072 63.2473 189.3472 63.5143 188.9572 63.7333 C 187.7682 64.4413 186.4172 65.0123 185.5472 65.8883 C 185.2582 66.2773 185.5672 66.4743 185.8812 66.6573 C 185.9162 66.6823 185.9822 66.5863 186.0122 66.6223 C 186.2452 66.8143 186.5642 66.7283 186.7912 66.9603 C 187.4492 67.1683 188.1172 66.7883 188.8262 66.4243 C 190.0242 65.8273 191.1122 65.1693 192.1752 65.1333 C 189.0432 66.5453 188.2942 67.1943 188.2942 67.1943 C 187.9702 67.4013 187.2872 67.6693 187.2872 67.6693 C 186.7412 67.7293 186.3672 68.0333 186.3672 68.0333 C 185.8002 67.8773 185.4762 67.4623 185.0812 67.0823 C 184.0802 66.1563 182.7992 65.7413 181.8232 64.8313 C 181.4942 64.5263 181.0942 64.2793 180.9022 63.8793 C 181.0642 63.9143 181.2512 63.8433 181.4192 63.8793 C 181.5192 63.7683 181.7072 63.8033 181.8532 63.7333 C 181.6512 63.6823 181.4792 63.5603 181.3072 63.4543 C 181.0542 63.2933 180.7402 63.2473 180.5632 62.9533 C 180.3912 62.9183 180.2242 63.0393 180.0722 62.9443 C 179.6472 63.0653 179.1872 63.2473 178.8482 63.5253 C 178.6512 63.8193 179.0602 64.0113 179.1722 64.2343 C 180.8822 66.1313 181.8642 66.5613 181.8642 66.5613 C 183.1082 67.1173 183.8522 67.8003 183.8522 67.8003 C 185.1222 69.0453 185.7852 69.3483 185.7852 69.3483 C 186.5892 69.8503 187.1762 70.2893 187.6822 70.6543 C 189.5342 71.8583 189.7012 72.5053 189.7012 72.5053 C 189.6402 72.7843 189.4532 72.9313 189.1652 72.9663 C 188.4612 73.0533 187.5712 72.3083 186.8122 71.6873 C 186.6702 71.5643 186.5182 71.4693 186.4222 71.3373 C 186.3772 71.2613 186.3612 71.2013 186.3162 71.1553 C 185.9362 70.6033 185.2842 70.4573 184.8792 70.2893 C 184.7072 70.2033 184.5652 70.0423 184.4032 69.9463 C 184.3432 69.9203 184.2312 69.9003 184.1912 69.8763 C 184.1302 69.8503 184.0502 69.7533 183.9282 69.6773 C 183.7762 69.5913 183.4822 69.3843 183.3312 69.4703 C 183.1642 69.5713 183.2602 69.9463 183.3212 70.1283 C 183.4122 70.3863 183.6542 70.5943 183.7462 70.8013 C 183.8872 70.9483 184.0852 71.0293 184.2212 71.2013 C 183.6742 71.3123 182.9062 71.3733 182.4762 71.8233 C 182.3542 72.2023 182.2782 72.5053 181.9952 72.9313 C 181.9042 73.1993 181.7422 73.5183 181.6152 73.7713 C 181.3072 73.6143 181.1352 73.2953 180.9122 73.0533 C 180.7602 72.9053 180.5182 72.7393 180.3312 72.6023 C 179.9312 72.3703 179.5662 72.1273 179.1722 72.0053 C 179.0402 71.9703 178.9192 71.9093 178.7872 71.8733 C 178.6202 71.8233 178.4532 71.7723 178.3122 71.7623 C 178.2202 71.7363 178.1142 71.7363 178.0282 71.7363 C 177.9422 71.7363 177.8362 71.7013 177.7552 71.6873 C 177.6442 71.6873 177.5432 71.7123 177.4612 71.7123 C 176.9152 71.6063 176.4902 71.8843 176.4902 71.8843 C 176.4092 71.9353 176.3082 71.8733 176.2062 71.8493 C 176.0652 71.8933 176.1362 72.0653 175.9242 72.0213 C 175.8732 72.2023 175.7312 72.2623 175.7112 72.3943 C 175.5182 72.6783 175.3572 73.0533 175.3572 73.0533 C 174.7092 74.5753 175.3362 75.0873 175.3362 75.0873 C 175.9692 76.2453 177.6132 76.5993 177.6132 76.5993 C 178.8182 76.9383 180.5482 75.9933 180.5482 75.9933 C 180.8112 76.5033 181.1152 76.9383 181.5192 77.2923 C 181.5902 77.3073 181.7072 77.4043 181.8432 77.4293 C 181.9042 77.4403 182.0252 77.4543 182.1062 77.4643 C 182.2032 77.4893 182.2782 77.5503 182.3702 77.5503 C 182.5972 77.5263 182.7692 77.3283 183.0582 77.2673 C 183.1642 77.1463 183.2092 77.0143 183.3312 76.9033 C 183.2702 76.8063 183.3312 76.6953 183.3112 76.5743 C 183.2852 76.4523 183.1892 76.3423 183.1382 76.2203 C 183.0882 76.1233 183.1082 76.0133 183.0782 75.9163 C 183.0582 75.7703 182.9562 75.6643 182.9462 75.5163 C 182.8402 75.3703 182.6632 75.2483 182.6122 75.0873 C 182.5972 75.0153 182.5362 75.1123 182.5212 75.0513 C 182.5062 74.8793 182.2482 74.7123 182.2782 74.5043 C 182.3042 74.3833 182.5212 74.1753 182.6122 74.0543 C 182.8152 73.7353 182.8652 73.4423 182.9872 73.1393 C 183.0272 73.0073 183.1182 72.8963 183.1792 72.7483 C 183.2802 72.5513 183.4022 72.0303 183.6042 71.9443 C 183.6642 71.9193 183.9072 72.0053 184.0092 72.0053 C 184.3272 71.9703 184.5352 72.0813 184.5352 72.0813 C 184.7782 72.0413 185.0412 72.0303 185.2942 72.0563 C 185.4462 72.0913 185.7092 72.2623 185.8602 72.2623 C 186.1952 72.2383 186.6092 71.8583 186.5692 71.6503 C 186.8322 72.0053 186.8832 72.1773 187.1402 72.3943 C 187.3382 72.5673 187.5102 72.7743 187.5912 72.8343 C 187.7832 72.9053 187.8852 73.1393 187.8852 73.1393 C 187.7632 73.4923 188.1582 73.4683 188.2282 73.7863 C 188.3342 73.8573 188.4912 73.8833 188.6282 73.9183 C 188.7652 73.9683 188.9012 74.0543 189.0282 74.0643 C 189.1792 74.0893 189.3212 74.0293 189.4382 74.1753 C 189.7162 74.2013 189.8782 74.2013 190.1002 74.1243 C 190.1562 74.1003 190.3132 74.1003 190.4142 74.0293 C 190.5262 73.9533 190.8802 73.7603 190.9912 73.6493 C 191.2042 73.4573 191.3102 73.1133 191.3252 72.8603 C 191.3402 72.5413 191.2492 72.1873 191.0312 71.8583 C 190.3032 70.7663 188.8162 69.8503 188.0312 69.1163 C 188.2492 69.0813 188.7042 69.0353 188.7142 69.3743 C 188.6732 69.4603 188.5982 69.3643 188.5222 69.4253 C 188.7552 69.5913 188.9982 69.6173 189.2712 69.7883 C 189.4122 69.7633 189.4882 69.8603 189.6452 69.9003 C 189.7162 69.8853 189.7772 69.8853 189.8372 69.9003 C 189.9392 70.0313 190.0652 69.9963 190.1562 70.1283 C 190.2062 70.1023 190.2632 70.0673 190.3032 70.0423 C 190.3632 70.0933 190.3892 70.1543 190.4502 70.1683 C 191.0162 70.2893 191.6392 70.6893 191.6392 70.6893 C 192.1752 70.7753 192.5702 70.5683 192.5702 70.5683 C 192.9442 70.3713 193.1622 69.9463 193.2532 69.5713 C 193.2682 69.5053 193.2882 69.3993 193.2982 69.3393 C 193.3192 69.2533 193.3592 69.1923 193.3592 69.1313 C 193.3742 68.9753 193.2882 68.8623 193.3592 68.7413 C 193.4302 68.6213 193.6782 68.7063 193.8192 68.7273 C 194.2602 68.7873 194.6742 68.8383 195.0392 68.9843 C 195.3422 69.2173 195.7012 69.5563 196.3132 69.2533 C 196.3742 69.2173 196.4962 69.1053 196.5722 69.0193 C 196.6072 68.9753 196.6582 68.8883 196.7092 68.8383 C 196.7992 68.7523 196.8662 68.6563 196.8802 68.5593 C 196.9112 68.3123 196.7792 68.0843 196.7992 67.9013 C 196.8092 67.6083 197.1692 67.4013 197.5282 67.3653 C 197.6502 67.3513 197.7612 67.3403 197.8572 67.3143 C 198.0592 67.2793 198.2872 67.2793 198.4692 67.2293 C 198.7122 67.1683 198.9952 66.9253 199.0362 66.7433 C 199.1272 66.2933 198.3022 65.9393 198.0442 65.9993 C 197.5792 65.9643 197.2342 66.3383 196.7792 66.5253 C 195.5142 66.8893 194.3612 67.1683 194.3612 67.1683 C 194.1782 67.1173 194.0172 67.1323 193.8502 67.1083 C 193.6982 67.0823 193.5512 67.0723 193.4042 67.0573 C 193.2682 67.0363 193.1262 67.0223 192.9942 66.9353 C 192.8432 66.9763 192.7112 66.9353 192.5642 66.8893 C 192.5092 66.9003 192.4482 66.9153 192.3922 66.9153 C 191.8262 66.7883 191.2492 66.9863 190.5962 67.0723 C 191.0312 66.8893 191.4772 66.7433 191.9122 66.5103 C 192.3322 66.2933 192.8232 65.9743 193.2472 65.8173 C 193.6682 65.6453 194.1382 65.5243 194.5132 65.3413 C 194.9482 65.0633 195.1502 64.6943 194.7862 64.3203 C 194.5532 64.0973 194.2602 63.8693 193.9712 63.8893 C 193.9862 63.8433 193.9352 63.8543 193.9152 63.7933 C 193.3892 63.6203 192.8232 63.5503 192.2252 63.5603 C 192.2252 63.4293 192.3372 63.3173 192.3922 63.2073 C 192.8942 62.2203 192.0742 61.9413 192.0742 61.9413" fill="#003f98"/>
      </g>
      <g id="Graphic_32">
        <path d="M 121.2991 44.8252 C 121.4201 45.6892 121.0061 45.9942 121.0061 45.9942 C 120.6621 46.3072 120.2571 46.3232 119.7311 46.4342 C 119.6301 46.3932 119.6301 46.2372 119.5031 46.1662 C 118.9661 46.1042 118.5061 45.6032 118.5061 45.6032 C 118.5361 45.5432 118.5521 45.5542 118.5211 45.5282 C 118.5061 45.5082 118.1011 45.0682 117.9091 44.7242 C 117.6211 44.1922 117.8791 43.8382 117.9241 43.7522 C 118.0611 43.5442 118.8401 43.4842 118.8401 43.4842 C 118.8911 43.4842 119.0931 43.4582 119.2551 43.4692 C 119.4271 43.4692 119.7151 43.5292 120.1911 43.5952 C 121.0771 43.8492 121.2941 44.7992 121.2991 44.8252 Z" fill="#003f98"/>
      </g>
      <g id="Graphic_33">
        <path d="M 121.3906 50.3654 C 120.8186 51.0024 121.0166 52.8394 121.0166 52.8394 C 121.1066 53.4014 121.1266 53.5574 121.1676 53.8864 C 121.2736 54.4234 121.5066 54.8524 121.5066 54.8524 C 122.4226 53.4964 122.6046 51.5744 122.8276 49.7324 C 122.9886 50.1474 122.6656 50.7944 123.0596 51.0634 C 123.0956 51.1344 122.9946 51.2804 123.1256 51.2804 C 122.9736 51.4024 123.1616 51.7414 122.9946 51.8884 C 123.0046 51.9484 123.0346 51.9634 123.0706 51.9744 C 122.9436 52.3184 123.1616 52.8134 123.0396 53.0214 C 123.0556 53.1324 123.0656 53.1584 123.0596 53.2794 C 123.3336 55.4094 123.0096 56.0474 123.0096 56.0474 C 122.4886 57.9954 121.9676 58.2034 121.9676 58.2034 C 121.8146 58.2274 121.7186 58.2884 121.5526 58.3494 C 120.4796 58.3494 120.2066 56.7404 120.2066 56.7404 C 120.3986 51.2554 120.3986 51.1854 120.3986 51.1854 C 120.3786 50.7344 120.4996 50.2684 120.4186 49.8444 C 120.1456 49.1604 119.8626 48.7974 119.8626 48.7974 C 119.7506 48.5994 119.8416 48.2854 119.9436 48.0284 C 119.9736 48.0284 120.0046 48.0174 120.0346 48.0174 C 120.0946 47.9774 120.0446 47.8804 120.1006 47.8454 C 121.5016 47.2734 122.1186 48.5124 122.1186 48.5124 C 122.1496 49.0894 122.0886 49.4544 122.0886 49.4544 C 121.9876 49.7224 121.3906 50.3654 121.3906 50.3654 Z" fill="#003f98"/>
      </g>
      <g id="Graphic_34">
        <path d="M 130.3408 51.5589 C 129.9108 51.6599 129.4958 51.9899 129.0608 52.0099 C 129.1118 51.7929 129.3548 51.7219 129.4198 51.5139 C 129.5968 51.6599 129.8958 50.9619 129.8958 50.9619 C 130.0018 50.9159 130.2038 50.7349 130.3258 50.5469 C 130.6498 49.7939 130.7908 49.9659 130.7908 49.9659 C 130.9178 50.7089 130.6898 50.9419 130.7408 51.1239 C 130.9028 51.4379 130.3408 51.5589 130.3408 51.5589 M 128.8688 52.0359 C 128.4938 52.0499 128.2108 51.7219 128.1908 51.3069 C 128.4228 51.1589 128.7168 50.8559 129.0958 50.8919 C 129.1568 51.2909 129.1568 51.6599 128.8528 51.8419 C 128.8278 51.8879 128.8988 51.9739 128.8688 52.0359 M 130.3558 43.0439 C 131.0438 42.5589 130.9178 42.0309 130.9178 42.0309 C 130.9028 42.0219 130.9028 42.0219 130.8918 42.0069 C 130.1988 40.6549 127.7808 43.0589 127.7808 43.0589 C 126.4808 44.5559 126.0098 44.6629 126.0098 44.6629 C 125.6508 44.5209 126.6828 41.5819 126.6828 41.5819 C 127.1228 40.5689 127.7648 37.7459 127.7648 37.7459 C 127.6588 37.2809 127.8568 36.8809 127.2588 36.5019 C 126.0958 36.4049 125.5648 38.7789 125.5648 38.7789 C 125.6198 38.7589 125.6298 38.7329 125.6908 38.7179 C 125.7018 38.7789 125.5798 38.8649 125.6558 38.9149 C 125.7018 38.8299 125.7118 38.7179 125.7918 38.6469 C 125.9898 38.6109 125.9898 38.3639 126.2078 38.4039 C 126.0198 39.6189 125.8938 40.3869 125.8938 40.3869 C 124.4768 45.1529 125.5488 46.1759 125.5488 46.1759 C 126.1258 46.5399 127.4018 44.9109 127.4018 44.9109 C 128.8278 42.9219 129.1918 43.1399 129.1918 43.1399 C 129.2428 43.1799 128.1498 45.9079 128.1498 45.9079 C 127.7198 47.3089 127.1888 50.2599 127.1888 50.2599 C 126.7238 50.5379 126.3388 50.5269 125.8228 50.4759 C 124.1228 50.7349 125.4278 51.7419 125.4278 51.7419 C 125.9898 51.9639 126.6728 51.6799 127.1488 51.6959 C 127.0978 54.0479 128.7468 53.9729 128.7468 53.9729 C 129.5768 53.9119 130.1538 53.1579 130.9128 53.0209 C 131.1448 54.6449 130.5228 55.9809 130.5228 55.9809 C 130.4578 55.9199 130.2148 55.9109 130.2038 55.9349 C 130.1838 56.0209 130.3718 56.1079 130.3358 56.1889 C 130.1228 57.1389 130.7808 57.8589 130.7808 57.8589 C 130.8818 58.0559 131.0438 58.0309 131.0438 58.0309 C 131.3478 57.9959 131.7828 57.4839 131.8838 57.0189 C 132.2588 55.3139 132.3748 54.4239 132.3748 54.4239 C 132.5318 53.9019 132.3498 53.1679 132.5118 52.6569 C 132.7038 52.5459 132.8958 52.3629 133.0578 52.1969 C 133.0068 51.2209 131.9958 51.0219 131.9958 51.0219 C 131.9248 50.3659 131.8738 49.8179 131.9958 49.2829 C 132.4008 49.1859 133.2098 48.6759 133.3008 48.6339 C 133.7868 48.3669 134.2108 48.7359 134.2108 48.7359 C 134.5458 48.8569 134.8188 49.0399 135.2948 48.6499 C 135.6178 46.3829 133.2398 47.6479 133.2398 47.6479 C 132.1118 48.2449 131.9858 48.0779 131.9858 48.0779 C 132.2788 46.4689 131.6108 45.3209 131.6108 45.3209 C 131.1558 44.7989 130.3108 45.2499 130.3108 45.2499 C 129.4658 45.6999 129.5568 46.2109 129.5568 46.2109 C 129.8348 46.2009 130.0118 46.3229 130.2038 46.4179 C 130.3968 46.7829 130.5388 47.3189 130.4928 47.6639 C 130.3058 47.6029 130.0118 47.5669 129.8348 47.4659 C 128.7468 47.1519 128.9488 48.4419 128.9488 48.4419 C 128.9488 48.8679 129.0508 49.2719 129.0308 49.6009 C 128.9448 49.8179 128.4078 49.9299 128.1348 49.9299 C 128.3628 44.4699 130.3558 43.0439 130.3558 43.0439" fill="#003f98"/>
      </g>
      <g id="Graphic_35">
        <path d="M 99.649 112.0677 L 91.336 115.0787 L 90.962 114.0157 L 94.766 112.6397 L 93.329 108.6677 L 89.504 110.0597 L 89.115 108.9967 L 97.428 105.9617 L 97.812 107.0237 L 94.321 108.3037 L 95.768 112.2747 L 99.259 111.0047 Z" fill="#003f98"/>
      </g>
      <g id="Graphic_36">
        <path d="M 97.3469 117.3804 C 95.5049 118.6454 95.0089 120.0824 95.8589 121.6664 C 96.9019 123.1084 98.3939 123.2744 100.3519 122.1824 C 102.2039 120.9274 102.6949 119.5104 101.8249 117.9414 C 100.7669 116.4794 99.2689 116.2824 97.3469 117.3804 M 96.7499 116.4194 C 99.3509 115.0024 101.3339 115.3304 102.7099 117.3804 C 103.9499 119.5254 103.3679 121.4494 100.9639 123.1684 C 98.4239 124.5444 96.4559 124.2014 95.0699 122.1564 C 93.8359 120.0114 94.3919 118.1094 96.7499 116.4194" fill="#003f98"/>
      </g>
      <g id="Graphic_37">
        <path d="M 110.6737 127.1509 L 104.3087 133.2939 L 103.5297 132.4729 L 106.4537 129.6609 L 103.5197 126.6139 L 100.5997 129.4419 L 99.8157 128.6229 L 106.1807 122.4859 L 106.9657 123.3009 L 104.2837 125.8859 L 107.2227 128.9159 L 109.8947 126.3469 Z" fill="#003f98"/>
      </g>
      <g id="Graphic_38">
        <path d="M 114.4786 131.7195 L 111.1396 134.1785 L 113.2136 135.6315 Z M 108.1336 136.4445 L 107.2026 135.8035 L 114.7826 130.3075 L 115.7996 131.0265 L 113.1486 139.9565 L 112.1566 139.2635 L 112.9356 136.7385 L 110.2696 134.8625 Z" fill="#003f98"/>
      </g>
      <g id="Graphic_39">
        <path d="M 116.6391 141.7577 L 120.6061 133.8497 L 121.5731 134.3407 L 117.6011 142.2587 Z" fill="#003f98"/>
      </g>
      <g id="Graphic_40">
        <path d="M 132.3799 143.9383 C 131.7629 145.9633 130.4169 146.7673 128.3629 146.3413 C 126.4499 145.7913 125.7119 144.5253 126.1359 142.5373 L 127.5679 136.8753 L 128.6159 137.1433 L 127.2749 142.4663 C 126.9059 144.0393 127.3609 145.0113 128.6559 145.3653 C 130.0169 145.6433 130.9179 145.0373 131.3169 143.5393 L 132.6779 138.1763 L 133.7659 138.4593 Z" fill="#003f98"/>
      </g>
      <g id="Graphic_41">
        <path d="M 142.4793 139.2234 L 141.9223 148.0464 L 140.6723 147.9714 L 136.9943 140.6044 L 136.5393 147.7024 L 135.4463 147.6314 L 136.0223 138.8134 L 137.3483 138.8944 L 140.9313 146.3414 L 141.4063 139.1524 Z" fill="#003f98"/>
      </g>
      <g id="Graphic_42">
        <path d="M 145.9554 147.8393 L 145.2924 139.0163 L 146.3854 138.9453 L 147.0324 147.7643 Z" fill="#003f98"/>
      </g>
      <g id="Graphic_43">
        <path d="M 155.9175 137.3012 L 154.8755 146.5602 L 153.6965 146.8032 L 148.9805 138.7732 L 150.1695 138.5302 L 154.0355 145.4772 L 154.7385 137.5532 Z" fill="#003f98"/>
      </g>
      <g id="Graphic_44">
        <path d="M 161.0433 144.8793 L 157.7493 136.6783 L 163.2443 134.4873 L 163.6183 135.4593 L 159.1563 137.2643 L 160.1673 139.8003 L 164.3163 138.1403 L 164.7163 139.1263 L 160.5673 140.7963 L 161.6853 143.5843 L 166.2393 141.7573 L 166.6033 142.6633 Z" fill="#003f98"/>
      </g>
      <g id="Graphic_45">
        <path d="M 170.4695 135.0239 C 171.4255 134.4469 171.6125 133.7279 171.0565 132.8279 C 170.5195 131.9779 169.8315 131.8159 169.0215 132.3269 L 166.6645 133.8049 L 168.2935 136.3849 Z M 169.9075 141.0039 L 165.2175 133.5199 L 168.4195 131.5029 C 169.9325 130.5859 171.1065 130.7939 171.9315 132.1099 C 172.4735 132.9239 172.5335 133.7279 172.1285 134.5489 C 172.7715 134.3509 173.3425 134.6689 173.8445 135.4589 L 174.7595 136.7649 C 174.9875 137.1429 175.2505 137.3009 175.5435 137.2649 L 175.6355 137.4119 L 174.5165 138.1149 C 174.2235 137.8719 173.7985 137.3109 173.2165 136.4249 C 172.6555 135.4839 171.9615 135.2759 171.1165 135.8129 L 168.8355 137.2399 L 170.8285 140.4169 Z" fill="#003f98"/>
      </g>
      <g id="Graphic_46">
        <path d="M 175.6147 127.1261 C 174.7447 127.9661 174.6287 128.7591 175.2657 129.4881 C 175.6807 129.9391 176.1717 130.0051 176.7227 129.6501 L 178.8177 128.4921 C 179.9507 127.8951 180.9277 128.0261 181.7427 128.9161 C 182.7797 130.1361 182.5717 131.4611 181.1147 132.9231 C 180.2847 133.7081 179.5057 134.0721 178.7727 134.0721 C 178.0027 134.0571 177.3147 133.7081 176.7127 133.0251 L 177.4567 132.3421 C 178.3527 133.2781 179.3537 133.2681 180.4877 132.3071 C 181.4937 131.3401 181.6817 130.5001 181.0647 129.7971 C 180.6287 129.1141 179.8547 129.1241 178.7467 129.8321 L 177.2697 130.6471 C 176.2117 131.2181 175.3367 131.1121 174.6227 130.3181 C 173.5047 128.9931 173.5657 127.6971 174.8307 126.4681 C 176.3487 125.0661 177.7547 125.0301 179.0507 126.3621 L 178.2807 127.0651 C 177.4917 126.2851 176.5907 126.2961 175.6147 127.1261 Z" fill="#003f98"/>
      </g>
      <g id="Graphic_47">
        <path d="M 185.8458 127.869 L 179.0298 122.218 L 179.7288 121.388 L 186.5388 127.029 Z" fill="#003f98"/>
      </g>
      <g id="Graphic_48">
        <path d="M 184.7986 113.9451 L 185.6886 114.5171 L 184.2416 116.8281 L 190.8336 120.9631 L 190.2326 121.9131 L 183.6446 117.7801 L 182.1826 120.0971 L 181.2976 119.5361 Z" fill="#003f98"/>
      </g>
      <g id="Graphic_49">
        <path d="M 194.8366 113.0642 L 191.5986 111.7742 L 185.4916 112.6392 L 185.9716 111.4352 L 190.8196 110.8592 L 187.7076 107.0942 L 188.1826 105.9002 L 191.9976 110.7622 L 195.2416 112.0672 Z" fill="#003f98"/>
      </g>
      <g id="Graphic_50">
        <path d="M 139.6302 76.2959 L 139.4532 77.8439 L 155.6742 77.8289 C 157.1422 77.6829 155.6602 76.0129 155.6602 76.0129 L 140.6682 76.0019 C 139.7472 75.8909 139.6302 76.2959 139.6302 76.2959 Z" fill="#003f98"/>
      </g>
      <g id="Graphic_51">
        <path d="M 162.0298 99.6873 C 165.9968 99.2873 164.3168 97.5673 164.3168 97.5673 L 154.8758 97.5563 L 154.7238 98.5543 C 155.3098 99.3833 157.7088 100.1163 162.0298 99.6873 Z" fill="#003f98"/>
      </g>
      <g id="Graphic_52">
        <path d="M 133.8321 100.0919 C 135.5731 100.7149 138.8311 98.4929 138.8311 98.4929 C 139.0391 98.3109 139.2961 98.1899 139.3121 97.3749 C 139.1701 96.7779 138.7251 96.5549 138.4061 96.5199 C 137.5361 96.4689 134.7481 96.4339 134.7481 96.4339 C 131.8231 96.2509 131.7621 97.6889 131.7621 97.6889 C 131.6921 99.2719 131.9141 99.5799 133.8321 100.0919 Z" fill="#003f98"/>
      </g>
      <g id="Graphic_53">
        <path d="M 133.078 104.1946 C 131.044 103.6736 129.435 105.9416 129.435 105.9416 C 130.791 107.8016 132.451 108.9106 132.451 108.9106 C 135.062 106.6436 135.062 106.0016 135.062 106.0016 C 135.391 104.9036 133.078 104.1946 133.078 104.1946 Z" fill="#003f98"/>
      </g>
      <g id="Graphic_54">
        <path d="M 144.3007 98.3005 C 144.4117 96.1805 142.7827 96.3875 142.7827 96.3875 C 141.2847 96.2065 141.1737 97.7035 141.1737 97.7035 C 141.1527 99.1245 140.4147 100.0655 140.4147 100.0655 L 137.7127 101.2605 C 136.7217 101.6605 137.0047 102.9755 137.0047 102.9755 C 137.4847 103.9625 138.7907 103.6585 138.7907 103.6585 C 142.4077 103.1625 144.0527 101.6755 144.0527 101.6755 Z" fill="#003f98"/>
      </g>
      <g id="Graphic_55">
        <path d="M 155.6598 108.1064 C 152.6788 107.7924 151.0808 107.6304 151.0808 107.6304 C 149.0768 107.3624 146.2438 107.5944 145.1708 106.0724 C 141.9938 104.6354 141.3558 106.5474 141.3558 106.5474 C 140.7588 108.3644 142.4188 109.7254 144.4218 109.8014 C 145.1708 109.7904 154.4198 110.6314 154.4198 110.6314 C 157.4248 110.9604 157.6478 109.5074 157.6478 109.5074 C 157.4248 108.0454 155.6598 108.1064 155.6598 108.1064 Z" fill="#003f98"/>
      </g>
      <g id="Graphic_56">
        <path d="M 148.9855 102.0295 C 150.2105 102.1865 151.9965 101.4525 152.4115 98.7605 C 152.5325 96.9245 149.9675 96.7275 149.9675 96.7275 C 147.4175 96.4335 146.7495 98.9435 146.7495 98.9435 C 146.2285 101.6405 147.7765 101.8575 148.9855 102.0295 Z" fill="#003f98"/>
      </g>
      <g id="Graphic_57">
        <path d="M 139.4633 121.3876 C 139.2003 121.3876 138.9373 121.5246 138.6843 121.7766 C 138.4213 122.0456 138.3003 122.4856 138.3003 123.1086 C 138.3003 123.2646 138.3603 123.4216 138.5123 123.6036 C 138.6493 123.7866 138.8823 123.8726 139.1703 123.8726 C 139.4843 123.8726 139.7473 123.7406 139.9693 123.4726 C 140.2023 123.1896 140.3193 122.8256 140.3193 122.3746 C 140.3193 122.0706 140.2433 121.8276 140.0903 121.6566 C 139.9543 121.4736 139.7473 121.3876 139.4633 121.3876 Z" fill="#003f98"/>
      </g>
      <g id="Graphic_58">
        <path d="M 159.2166 124.6661 L 158.0526 122.5721 C 168.3646 116.8791 174.7756 106.0471 174.7756 94.2881 C 174.7756 76.5031 160.2996 62.0271 142.5096 62.0271 C 124.7196 62.0271 110.2596 76.5031 110.2596 94.2881 C 110.2596 105.9261 116.5636 116.6981 126.7136 122.4101 L 125.5296 124.5201 C 114.6206 118.3771 107.8506 106.7901 107.8506 94.2881 C 107.8506 75.1731 123.4046 59.6291 142.5096 59.6291 C 161.6246 59.6291 177.1686 75.1731 177.1686 94.2881 C 177.1686 106.9271 170.2916 118.5751 159.2166 124.6661 M 146.7496 111.7641 C 144.7916 111.6021 144.8976 112.7611 144.8976 112.7611 C 144.9986 113.8441 147.1536 113.9051 147.1536 113.9051 L 153.9036 113.9051 C 154.8146 113.9051 154.8146 114.9321 154.8146 114.9321 C 154.7336 115.9531 152.3046 116.1361 152.3046 116.1361 C 147.4376 116.6731 145.4796 116.0901 145.4796 116.0901 C 138.2086 112.1291 139.8126 109.8261 139.8126 109.8261 C 139.8486 108.2681 137.8446 108.1571 137.8446 108.1571 C 136.2656 108.0711 135.0006 108.4861 134.0796 109.7761 C 134.8996 111.2991 137.0296 112.5431 137.9156 113.1761 C 141.0216 115.2241 141.9726 115.7361 141.9726 115.7361 C 142.7926 116.1611 142.0336 116.7331 142.0336 116.7331 C 141.7306 116.9301 140.6376 116.5151 140.6376 116.5151 C 136.9636 115.4781 130.5586 110.4331 130.5586 110.4331 C 121.1476 101.9281 121.5726 91.2221 121.5726 91.2221 C 121.7246 89.3911 123.2826 89.3201 123.2826 89.3201 C 124.8566 89.2491 125.2156 91.2221 125.2156 91.2221 C 125.5446 100.4661 127.8916 103.0871 128.1506 103.3551 C 128.1506 103.3651 129.9006 103.0361 130.4466 102.2371 C 131.5706 101.0531 130.4776 100.1631 130.4776 100.1631 C 128.1606 98.3001 128.3826 94.0851 128.3826 94.0851 C 129.9256 93.5601 130.5996 93.3521 130.5996 93.3521 C 130.6296 93.3411 130.6396 93.3271 130.6596 93.3171 C 131.3176 93.2051 132.1366 93.1691 133.3516 93.2051 L 139.6766 93.2661 C 140.0906 93.1951 140.5916 94.0001 140.5916 94.0001 L 143.7946 94.0001 C 144.8466 93.6301 144.7156 92.1331 144.7156 92.1331 C 144.5436 91.0501 143.3036 90.7101 143.3036 90.7101 L 130.9226 90.7101 L 130.8266 90.7101 C 128.9296 90.7101 127.8916 90.1241 127.5936 89.9261 C 126.8046 89.3201 125.9336 88.4541 126.1366 87.7461 C 126.5516 86.1171 128.3936 85.4941 129.5366 86.2991 L 130.7056 87.1291 C 131.4236 87.9181 133.8326 87.9181 133.8326 87.9181 L 143.7546 87.9431 C 144.7356 87.8931 144.7156 86.6881 144.7156 86.6881 C 144.6956 85.5191 143.4916 85.5301 143.4916 85.5301 L 129.6526 85.5191 C 128.4036 85.5041 128.7566 84.6151 128.7566 84.6151 L 129.5766 83.2521 C 129.7186 83.0301 130.3406 82.3371 132.4056 82.3371 L 165.8706 82.3371 C 165.3486 78.9621 160.9166 75.0151 160.9166 75.0151 C 157.4656 71.6511 152.3556 69.5711 152.3556 69.5711 C 150.3016 68.7671 147.2406 68.1441 147.2406 68.1441 C 144.4626 67.4261 144.6546 65.8881 144.6546 65.8881 C 144.7356 64.5981 146.9316 64.8761 146.9316 64.8761 C 147.9126 64.9981 151.4296 65.3171 156.3526 67.6191 C 166.6846 72.5761 169.7096 82.2251 169.7096 82.2251 C 170.1206 83.5061 170.5096 85.0791 170.5096 85.0791 L 150.3516 85.0791 C 148.7376 85.0701 148.7126 86.5061 148.7126 86.5061 C 148.6926 87.8821 149.9376 87.9181 149.9376 87.9181 L 167.3826 87.9891 C 168.4956 88.1151 169.9936 87.0521 169.9936 87.0521 C 170.9196 86.3691 171.3896 87.5641 171.3896 87.5641 C 172.0676 89.2941 171.5116 90.8671 171.5116 90.8671 L 150.4336 91.0151 C 149.0106 91.1011 149.0006 92.7201 149.0006 92.7201 C 149.0866 94.3391 150.6146 94.2271 150.6146 94.2271 L 168.0206 94.1561 L 167.9996 94.1671 C 169.9836 94.0101 171.0866 95.6791 171.0866 95.6791 C 171.1626 95.9831 171.1926 96.3471 171.1466 96.7871 C 171.0566 97.7391 168.4356 98.7251 168.4356 98.7251 C 165.3886 100.0301 165.7136 101.4681 165.7136 101.4681 C 165.8806 102.2831 167.3316 103.2241 167.3316 103.2241 C 168.3746 104.1851 167.2616 105.5711 167.2616 105.5711 C 165.8446 106.8411 164.0436 105.2421 164.0436 105.2421 C 162.6976 102.7231 160.2336 102.6461 160.2336 102.6461 C 158.3816 102.6461 157.6026 103.5621 157.6026 103.5621 C 156.6816 104.6961 154.3486 104.3671 154.3486 104.3671 C 152.0826 103.7351 152.0266 104.9891 152.0266 104.9891 C 151.9906 105.6321 152.7706 106.0471 153.4836 106.1691 C 154.1876 106.2901 158.1486 106.0721 159.6816 106.4361 C 161.2206 106.8161 162.3636 107.0591 163.1636 108.4861 C 163.9516 110.2871 163.2236 110.9341 162.5766 111.3341 C 160.8306 112.6901 157.1726 112.3211 157.1726 112.3211 Z M 154.9766 121.8121 L 151.7536 121.8121 L 151.3886 122.9611 C 151.7786 122.8251 152.0726 122.7391 152.2646 122.6781 C 152.4666 122.6331 152.6686 122.6071 152.8816 122.6071 C 153.4836 122.6071 153.9746 122.7791 154.3696 123.1081 C 154.7546 123.4371 154.9366 123.9231 154.9366 124.5801 C 154.9366 125.0921 154.8246 125.5561 154.5866 125.9671 C 154.3546 126.3821 153.9746 126.7511 153.4686 127.0391 C 152.9476 127.3481 152.2296 127.5051 151.3236 127.5051 C 150.4636 127.5051 149.8256 127.3481 149.3906 127.0191 C 148.9706 126.7001 148.7126 126.1901 148.6116 125.4811 L 150.6806 125.2491 L 150.6806 125.2731 C 150.6806 125.6021 150.7616 125.8451 150.9236 126.0271 C 151.0956 126.1991 151.3236 126.2961 151.6166 126.2961 C 151.9706 126.2961 152.2846 126.1281 152.5326 125.8251 C 152.7806 125.5161 152.9016 125.1671 152.9016 124.7371 L 152.9016 124.7121 C 152.9016 124.1311 152.6286 123.8261 152.0826 123.8261 C 151.6976 123.8261 151.3586 123.9831 151.0706 124.2861 L 149.1376 124.0081 L 150.2706 120.3301 L 155.3306 120.3301 Z M 146.4256 127.3831 L 144.3156 127.3831 L 145.3886 122.7391 C 144.7556 123.1081 144.0076 123.3961 143.1266 123.5941 L 143.5016 121.9241 C 144.6246 121.4581 145.5556 120.8861 146.2886 120.2041 L 148.0756 120.2041 Z M 141.8816 125.1671 C 141.5886 125.8851 141.1536 126.4681 140.5816 126.8831 C 139.9946 127.2971 139.2916 127.5051 138.4616 127.5051 C 137.7476 127.5051 137.1816 127.3581 136.7316 127.0651 C 136.2866 126.7861 136.0126 126.3621 135.9116 125.7991 L 137.9306 125.6181 C 138.0066 126.0781 138.2546 126.3211 138.6486 126.3211 C 138.9476 126.3211 139.2006 126.1741 139.4176 125.8961 C 139.6256 125.6181 139.8276 125.1671 140.0096 124.5291 L 139.9796 124.5201 C 139.5136 124.8741 138.9876 125.0561 138.4216 125.0561 C 137.8346 125.0561 137.3336 124.8581 136.9186 124.4581 C 136.5086 124.0691 136.2906 123.5791 136.2906 122.9711 C 136.2906 122.2631 136.5846 121.6211 137.1456 121.0591 C 137.7126 120.4871 138.4726 120.2041 139.4486 120.2041 C 140.3336 120.2041 141.0316 120.4621 141.5426 120.9631 C 142.0646 121.4741 142.3176 122.1561 142.3176 123.0221 C 142.3176 123.7251 142.1706 124.4441 141.8816 125.1671 M 144.5436 71.2971 C 144.9586 71.5441 145.0086 72.1521 145.0086 72.5521 C 144.9886 73.3361 146.5316 73.5791 146.5316 73.5791 C 148.1256 73.8321 149.1676 73.3461 149.7806 71.6511 C 149.9626 71.2011 151.1716 71.2971 151.1716 71.2971 C 155.7956 71.6511 159.6066 76.5231 159.6066 76.5231 C 162.3586 79.7311 160.9216 80.5711 160.9216 80.5711 L 136.7366 80.7431 C 133.5736 80.5711 134.4346 79.0841 134.4346 79.0841 C 136.1246 76.1501 138.2596 73.7251 140.8396 72.3951 C 143.6326 70.7751 144.5436 71.2971 144.5436 71.2971 M 124.5176 110.9191 C 112.1356 98.8371 119.5136 82.8881 119.5136 82.8881 C 124.6886 70.4471 138.1686 65.6961 138.1686 65.6961 C 139.0636 65.3521 139.4136 66.0501 139.4136 66.0501 C 139.5746 66.6821 138.5026 67.1591 138.5026 67.1591 C 132.5216 70.3861 130.4976 72.4101 130.4976 72.4101 C 125.1346 77.0851 123.7476 79.6561 123.7476 79.6561 C 122.0986 82.3371 121.9976 83.1171 121.9976 83.1171 C 121.9976 83.7141 122.4836 84.4921 123.7076 84.0321 C 124.9116 83.5661 125.5446 82.5341 125.7166 82.2051 C 125.8936 81.8621 130.5896 75.0061 136.6196 70.6891 C 139.1196 68.7411 141.0366 69.0201 141.0366 69.0201 C 141.9526 69.3131 141.4976 70.3001 140.9706 70.5081 C 139.8276 70.8971 138.2296 72.0211 138.2296 72.0211 C 135.0206 74.6521 132.7996 77.4541 130.5226 80.5971 C 127.7656 84.9331 125.1946 85.8591 125.1946 85.8591 C 122.1796 86.9311 121.2946 87.8821 121.2946 87.8821 C 120.5206 88.6971 119.5796 89.5261 119.7506 93.4481 C 119.4976 101.0531 124.8916 108.3391 124.8916 108.3391 C 128.5346 113.7131 133.9786 117.5021 133.9786 117.5021 C 134.4546 118.0031 134.4086 118.0381 134.0596 117.9421 C 129.0606 116.3071 124.5176 110.9191 124.5176 110.9191 M 113.7196 85.4681 C 113.7196 83.9211 114.9136 81.3761 114.9136 81.3761 C 114.9846 81.1691 117.9496 75.0661 121.4406 71.8331 C 124.8616 68.2061 130.3056 66.5961 130.3056 66.5961 C 131.1956 66.2321 131.4796 66.7431 131.4796 66.7431 C 131.8936 67.5321 131.2116 67.7051 130.4626 68.1701 C 126.4806 69.8501 120.9346 76.7111 120.9346 76.7111 C 118.4306 79.9631 116.8976 83.8601 116.8976 83.8601 C 116.8266 84.0321 116.7606 84.2041 116.6956 84.4121 C 115.8706 86.8101 114.4786 86.3251 114.4786 86.3251 C 114.1296 86.2381 113.7706 86.0051 113.7196 85.4681 M 114.4176 89.3551 C 115.3286 89.4661 115.2586 90.2201 115.2586 90.2201 C 113.6086 98.3251 116.9586 104.4791 116.9586 104.4791 C 119.5486 110.4591 124.9376 116.4191 124.9376 116.4191 C 125.0286 116.5011 125.0886 116.7681 124.3956 116.5011 C 118.9716 113.2011 115.0556 104.9131 115.0556 104.9131 C 111.4686 97.9311 113.2696 89.9771 113.2696 89.9771 C 113.3256 89.8311 113.5326 89.2851 114.4176 89.3551 M 133.4926 127.3831 L 131.3986 127.3831 L 132.4716 122.7391 C 131.8336 123.1081 131.0846 123.3961 130.2036 123.5941 L 130.5896 121.9241 C 131.7016 121.4581 132.6376 120.8861 133.3566 120.2041 L 135.1526 120.2041 Z M 142.1756 57.8481 C 121.9576 57.8481 105.5936 74.2111 105.5936 94.4241 C 105.5936 114.6281 121.9576 131.0011 142.1756 131.0011 C 162.3736 131.0011 178.7566 114.6281 178.7566 94.4241 C 178.7566 74.2111 162.3736 57.8481 142.1756 57.8481" fill="#003f98"/>
      </g>
    </g>
  </g>
</svg>
