<?xml version="1.0" standalone="no"?><!DOCTYPE svg PUBLIC "-//W3C//DTD SVG 1.1//EN" "http://www.w3.org/Graphics/SVG/1.1/DTD/svg11.dtd"><svg class="icon" width="200px" height="200.00px" viewBox="0 0 1024 1024" version="1.1" xmlns="http://www.w3.org/2000/svg"><path d="M512 0C229.216 0 0 229.216 0 512s229.216 512 512 512 512-229.216 512-512S794.784 0 512 0zM314.4 186.784c22.4 0 40.416 18.4 40.416 40.416s-18.016 40.416-40.416 40.416a40.544 40.544 0 0 1-40.416-40.384c0-22.4 18.016-40.416 40.416-40.416z m-30.784 129.632h61.6v428.416H283.616z m151.968 0h166.4c158.368 0 228 113.184 228 214.4 0 109.984-86.016 214.4-227.2 214.4h-167.2z m61.6 55.584v317.6H595.2c139.616 0 171.616-105.984 171.616-158.816 0-86.016-54.784-158.816-174.816-158.816z" fill="#A6CE39" /></svg>